<svg width="94" height="74" viewBox="0 0 94 74" fill="none" xmlns="http://www.w3.org/2000/svg">
<path fill-rule="evenodd" clip-rule="evenodd" d="M3 0H91C92.6568 0 94 1.34314 94 3V71C94 72.6569 92.6568 74 91 74H3C1.34316 74 0 72.6569 0 71V3C0 1.34314 1.34315 0 3 0ZM3 2C2.44772 2 2 2.44771 2 3V61.5858L16.5858 47C17.3668 46.2189 18.6332 46.219 19.4142 47L34 61.5858L66.5858 29C67.3668 28.219 68.6332 28.219 69.4142 29L92 51.5858V3C92 2.44772 91.5523 2 91 2H3ZM92 54L91.7929 54.2071L68 30.4142L35.4142 63C34.6332 63.781 33.3668 63.7811 32.5858 63L18 48.4142L2 64.4142V71C2 71.5523 2.44772 72 3 72H91C91.5523 72 92 71.5523 92 71V54ZM20.5 25C24.0899 25 27 22.0899 27 18.5C27 14.9101 24.0899 12 20.5 12C16.9101 12 14 14.9101 14 18.5C14 22.0899 16.9101 25 20.5 25ZM20.5 27C25.1944 27 29 23.1944 29 18.5C29 13.8056 25.1944 10 20.5 10C15.8056 10 12 13.8056 12 18.5C12 23.1944 15.8056 27 20.5 27Z" fill="#D6DDE4"/>
</svg>
